<?xml version="1.0" encoding="utf-8"?>
<!-- Generator: Adobe Illustrator 23.1.1, SVG Export Plug-In . SVG Version: 6.00 Build 0)  -->
<svg version="1.1" id="Layer_1" xmlns="http://www.w3.org/2000/svg" xmlns:xlink="http://www.w3.org/1999/xlink" x="0px" y="0px"
	 viewBox="0 0 512 512" style="enable-background:new 0 0 512 512;" xml:space="preserve">
<style type="text/css">
	.st0{fill:#E47312;}
</style>
<g>
	<title  class="active-path">BRICKWALL</title>
	<path class="st0" d="M439.5,197.7c3.9,0,7-3.1,7-7v-65.3c0-3.9-3.1-7-7-7h-66.4V60c0-3.9-3.1-7-7-7H219.3c-3.9,0-7,3.1-7,7v58.3
		h-66.4c-3.9,0-7,3.1-7,7v58.3H72.5c-3.9,0-7,3.1-7,7V256c0,3.9,3.1,7,7,7h66.4v51.3H72.5c-3.9,0-7,3.1-7,7v65.3c0,3.9,3.1,7,7,7
		h66.4V452c0,3.9,3.1,7,7,7h293.6c3.9,0,7-3.1,7-7v-65.3c0-3.9-3.1-7-7-7h-66.4v-51.3h66.4c3.9,0,7-3.1,7-7V256c0-3.9-3.1-7-7-7
		h-66.4v-51.3H439.5z M432.5,183.7H299.7v-51.3h132.8V183.7z M226.3,67h132.8v18.7H332c-3.9,0-7,3.1-7,7s3.1,7,7,7h27.1v18.7H226.3
		L226.3,67z M152.9,132.3h132.8v51.3H152.9V132.3z M79.5,197.7h132.8V249H79.5V197.7z M152.9,295.7h31.8c3.9,0,7-3.1,7-7s-3.1-7-7-7
		h-31.8V263h132.8v51.3H152.9V295.7z M79.5,328.3h132.8v51.3H79.5V328.3z M152.9,426.3h44.4c3.9,0,7-3.1,7-7s-3.1-7-7-7h-44.4v-18.7
		h132.8V445H152.9V426.3z M432.5,445H299.7v-51.3h132.8V445z M359.1,347H300c-3.9,0-7,3.1-7,7s3.1,7,7,7h59.1v18.7H226.3v-51.3
		h132.8V347z M432.5,314.3H299.7V263h132.8V314.3z M359.1,249H226.3v-18.7h41c3.9,0,7-3.1,7-7s-3.1-7-7-7h-41v-18.7h132.8L359.1,249
		z"/>
</g>
</svg>
